<mxfile host="Electron" modified="2024-12-03T14:29:15.236Z" agent="Mozilla/5.0 (Windows NT 10.0; Win64; x64) AppleWebKit/537.36 (KHTML, like Gecko) draw.io/24.4.0 Chrome/120.0.6099.109 Electron/28.1.0 Safari/537.36" etag="Es01gcz9kSNCs2l_XQo2" version="24.4.0" type="device">
  <diagram name="Page-1" id="8SEOAbJ4F6ENoUbZDOBO">
    <mxGraphModel dx="472" dy="827" grid="1" gridSize="10" guides="1" tooltips="1" connect="1" arrows="1" fold="1" page="1" pageScale="1" pageWidth="1169" pageHeight="827" math="0" shadow="0">
      <root>
        <mxCell id="0" />
        <mxCell id="1" parent="0" />
        <mxCell id="SRgfI5QN9cAayJcJiEQV-2" value="" style="shape=cylinder3;whiteSpace=wrap;html=1;boundedLbl=1;backgroundOutline=1;size=3;rotation=-180;fillColor=#e1d5e7;strokeColor=#9673a6;" vertex="1" parent="1">
          <mxGeometry x="190" y="300" width="60" height="20" as="geometry" />
        </mxCell>
        <mxCell id="SRgfI5QN9cAayJcJiEQV-1" value="" style="rounded=1;whiteSpace=wrap;html=1;fillColor=#4C0099;shadow=1;" vertex="1" parent="1">
          <mxGeometry x="160" y="320" width="120" height="60" as="geometry" />
        </mxCell>
        <mxCell id="SRgfI5QN9cAayJcJiEQV-4" value="" style="triangle;whiteSpace=wrap;html=1;shadow=1;fillColor=#e1d5e7;strokeColor=#9673a6;" vertex="1" parent="1">
          <mxGeometry x="260" y="340" width="20" height="20" as="geometry" />
        </mxCell>
        <mxCell id="SRgfI5QN9cAayJcJiEQV-3" value="" style="shape=cylinder3;whiteSpace=wrap;html=1;boundedLbl=1;backgroundOutline=1;size=3;rotation=-180;fillColor=#e1d5e7;strokeColor=#9673a6;" vertex="1" parent="1">
          <mxGeometry x="190" y="380" width="60" height="20" as="geometry" />
        </mxCell>
      </root>
    </mxGraphModel>
  </diagram>
</mxfile>
